<?xml version="1.0" encoding="utf-8"?>
<!-- Generator: Adobe Illustrator 23.0.5, SVG Export Plug-In . SVG Version: 6.00 Build 0)  -->
<svg version="1.1" id="Layer_1" xmlns="http://www.w3.org/2000/svg" xmlns:xlink="http://www.w3.org/1999/xlink" x="0px" y="0px"
	 viewBox="0 0 500 500" style="enable-background:new 0 0 500 500;" xml:space="preserve">
<style type="text/css">
	.st0{fill:#A5A9AA;}
	.st1{fill:#565A5D;}
	.st2{fill:#6D6E70;}
	.st3{fill:#414141;}
</style>
<g>
	<path class="st0" d="M206.26,67.43V385.4l-45.36-45.36V9.64C181.94,36.44,196.36,54.83,206.26,67.43z"/>
	<path class="st1" d="M129.58,161.8v328.56c-12.04-15.34-26.94-34.32-45.36-57.8V116.44L129.58,161.8z"/>
	<path class="st1" d="M415.78,116.88v314.38c-20.07,25.58-34.7,44.22-45.36,57.8V162.24L415.78,116.88z"/>
	<polygon class="st2" points="415.78,59 415.78,116.88 370.42,162.24 338.02,194.64 338.02,136.76 370.42,104.36 	"/>
	<path class="st0" d="M338.02,11.97V339.8l-39.96,39.96V62.88C308.29,49.85,321.35,33.21,338.02,11.97z"/>
	<polygon class="st2" points="160.9,135.24 160.9,193.12 84.22,116.44 84.22,58.56 	"/>
	<polygon class="st3" points="298.06,176.72 298.06,234.6 250.22,282.44 206.26,238.48 206.26,180.6 250.22,224.56 	"/>
</g>
</svg>
